<?xml version="1.0" encoding="UTF-8" standalone="no"?>
<!-- Created with Inkscape (http://www.inkscape.org/) -->

<svg
   width="200"
   height="200"
   viewBox="0 0 200 200"
   version="1.1"
   id="svg5"
   sodipodi:docname="bg.svg"
   inkscape:version="1.2.2 (b0a8486541, 2022-12-01)"
   xmlns:inkscape="http://www.inkscape.org/namespaces/inkscape"
   xmlns:sodipodi="http://sodipodi.sourceforge.net/DTD/sodipodi-0.dtd"
   xmlns="http://www.w3.org/2000/svg"
   xmlns:svg="http://www.w3.org/2000/svg">
  <sodipodi:namedview
     id="namedview7"
     pagecolor="#ffffff"
     bordercolor="#000000"
     borderopacity="0.25"
     inkscape:showpageshadow="2"
     inkscape:pageopacity="0.0"
     inkscape:pagecheckerboard="0"
     inkscape:deskcolor="#d1d1d1"
     inkscape:document-units="mm"
     showgrid="false"
     inkscape:zoom="2.3786088"
     inkscape:cx="37.837243"
     inkscape:cy="97.325798"
     inkscape:window-width="1920"
     inkscape:window-height="1142"
     inkscape:window-x="2560"
     inkscape:window-y="270"
     inkscape:window-maximized="1"
     inkscape:current-layer="layer1" />
  <defs
     id="defs2" />
  <g
     inkscape:label="Layer 1"
     inkscape:groupmode="layer"
     id="layer1">
    <path
       d="m 38.720683,31.061704 2.168546,-2.168557 2.168562,2.168557 -2.168562,2.168549 -2.168546,-2.168549 m -4.336859,-8.673692 -2.168562,2.168556 4.336874,4.336861 2.168547,-2.168549 -2.168547,-2.168556 1.084073,-1.084075 c 0.607013,-0.607013 0.607013,-1.56115 0,-2.168549 l -4.336625,-4.336787 c -0.607012,-0.607014 -1.561153,-0.607014 -2.16855,0 l -5.421103,5.421099 2.168556,2.168556 4.336858,-4.336824 2.168558,2.168549 m -10.842158,2.168556 -2.168558,2.168549 8.673732,8.67373 2.168547,-2.168556 -8.673721,-8.673723 m 19.515884,34.694865 c 2.407086,2.407094 6.288437,2.385364 8.67368,0 2.385376,-2.385368 2.407094,-6.266756 0,-8.673729 -2.407083,-2.407088 -6.266756,-2.407088 -8.67368,0 -2.407094,2.40709 -2.385368,6.288441 0,8.673729 m -8.673726,-23.852707 -2.168558,2.168552 2.168558,2.168547 2.16855,-2.168547 -2.16855,-2.168552 m 23.852706,2.168552 -2.168558,2.168547 c -3.25262,-3.252621 -7.242547,-5.204239 -11.405912,-5.941491 l -6.006585,6.006538 c 4.618768,-0.672156 9.519436,0.715612 13.075638,4.271821 l 4.336859,4.336824 4.33687,-4.336824 2.168551,2.168552 -4.336863,4.336867 6.505292,6.505296 -30.357998,30.358002 -6.5053,-6.5053 -4.336858,4.336863 -2.168558,-2.168551 4.336869,-4.336862 -4.336869,-4.336867 c -5.98486,-5.984859 -5.98486,-15.699414 0,-21.684273 l 8.673732,-8.673688 c 0.737297,-0.737301 1.561149,-1.387772 2.385361,-1.951734 l -4.380226,-4.380226 c -0.824211,0.607014 -1.604586,1.257843 -2.341917,1.995178 l -2.168556,2.168552 -2.753832,-2.753831 c 0.563931,-2.038223 0.02148,-4.315184 -1.582869,-5.919813 -2.385371,-2.385369 -6.266764,-2.407088 -8.673728,0 -2.407091,2.407084 -2.385364,6.288441 0,8.673726 1.604588,1.604595 3.881349,2.14683 5.919811,1.582868 l 2.753835,2.753836 -2.168556,2.168548 c -8.391822,8.391829 -8.391822,21.966174 0,30.358003 l -2.168548,2.168554 c -1.192685,1.192684 -1.192685,3.144417 0,4.336867 l 6.505257,6.505254 c 1.192686,1.192677 3.14402,1.192677 4.33686,0 l 2.168556,-2.168554 2.168552,2.168554 c 2.407087,2.407083 6.288437,2.385364 8.67373,0 L 69.078606,61.420831 c 2.407094,-2.407087 2.407094,-6.26676 0,-8.673726 L 66.910052,50.578548 69.078606,48.41 c 1.192684,-1.192684 1.192684,-3.144019 0,-4.336824 l -6.505255,-6.505291 c -1.192684,-1.192689 -3.14402,-1.192689 -4.336859,0 M 27.878487,65.757452 c -2.385374,2.385364 -2.385374,6.288441 0,8.673688 2.385361,2.385368 6.288436,2.385368 8.673721,0 2.385372,-2.385368 2.407094,-6.26676 0,-8.673688 -2.407083,-2.407094 -6.266758,-2.407094 -8.673721,0 z"
       id="path194"
       style="fill:#808080;fill-opacity:0.124242;stroke-width:3.06662" />
    <path
       d="m 172.58904,141.50679 2.18023,2.15681 -2.15681,2.18024 -2.18023,-2.15682 2.15681,-2.18023 m 8.65019,-4.38364 -2.18024,-2.1568 -4.31338,4.36022 2.18024,2.15681 2.15681,-2.18023 1.0899,1.0782 c 0.61029,0.60373 1.56441,0.59858 2.16853,-0.0117 l 4.31338,-4.36022 c 0.60373,-0.61027 0.59857,-1.5644 -0.0117,-2.16851 l -5.45025,-5.39171 -2.15681,2.18022 4.36022,4.31339 -2.15681,2.18023 m -2.22706,-10.83025 -2.18024,-2.15681 -8.62673,8.7204 2.18024,2.15681 8.62673,-8.7204 m -34.58895,19.7029 c -2.39406,2.42005 -2.35138,6.30123 0.0468,8.67356 2.39822,2.37245 6.27963,2.37321 8.67357,-0.0468 2.39405,-2.42005 2.37321,-6.27962 -0.0468,-8.67355 -2.42006,-2.39406 -6.30123,-2.35139 -8.67356,0.0468 m 23.80576,-8.80229 -2.18022,-2.1568 -2.15682,2.18022 2.18024,2.15682 2.1568,-2.18024 m -2.03972,23.86408 -2.18023,-2.15681 c 3.23502,-3.27014 5.16502,-7.27054 5.87982,-11.43783 l -6.03892,-5.97402 c 0.69709,4.61506 -0.6642,9.52311 -4.20112,13.09847 l -4.31338,4.36021 4.36022,4.31338 -2.15681,2.18024 -4.36023,-4.31338 -6.47003,6.54032 -30.52147,-30.19365 6.47006,-6.54031 -4.36021,-4.31335 2.15681,-2.18023 4.36018,4.31338 4.31338,-4.36021 c 5.95246,-6.01709 15.66688,-6.06954 21.68396,-0.11709 l 8.72044,8.62673 c 0.74127,0.73331 1.39618,1.55364 1.96459,2.37479 l 4.35659,-4.40377 c -0.61146,-0.82053 -1.2665,-1.59777 -2.00739,-2.33111 l -2.18024,-2.15682 2.73893,-2.76866 c 2.04123,0.55291 4.31519,-0.002 5.91117,-1.61481 2.37246,-2.39822 2.37322,-6.27967 -0.0468,-8.67361 -2.42005,-2.39406 -6.30127,-2.35137 -8.6736,0.0468 -1.59591,1.61324 -2.12584,3.89288 -1.55089,5.92828 l -2.73892,2.76866 -2.18022,-2.15681 c -8.43702,-8.3464 -22.01118,-8.2731 -30.35756,0.16392 l -2.18024,-2.15682 c -1.1991,-1.18622 -3.1504,-1.17569 -4.3368,0.0234 l -6.47006,6.54033 c -1.18624,1.1991 -1.1757,3.1504 0.0234,4.33679 l 2.18023,2.15681 -2.15681,2.18024 c -2.39406,2.42005 -2.35138,6.30122 0.0468,8.6736 l 30.52147,30.19364 c 2.42006,2.39406 6.27967,2.37322 8.67356,-0.0468 l 2.15681,-2.18023 2.18023,2.15681 c 1.19911,1.18622 3.15042,1.17568 4.33681,-0.0234 l 6.46999,-6.54029 c 1.18622,-1.19911 1.17569,-3.15041 -0.0234,-4.3368 m -28.35308,-30.20534 c -2.39821,-2.37246 -6.30122,-2.35138 -8.6736,0.0468 -2.37245,2.39821 -2.35137,6.30126 0.0468,8.67361 2.39822,2.37244 6.27967,2.37319 8.67361,-0.0468 2.39406,-2.42006 2.37322,-6.27966 -0.0468,-8.6736 z"
       id="path194-3"
       style="fill:#808080;fill-opacity:0.124242;stroke-width:3.06662" />
    <path
       d="m 42.018832,172.66024 -2.531988,1.66736 -1.667368,-2.532 2.531998,-1.66736 1.667358,2.532 m 2.469954,9.26277 2.531999,-1.66736 -3.334538,-5.0637 -2.531987,1.66736 1.667349,2.53199 -1.265757,0.83353 c -0.708744,0.46672 -0.898958,1.39055 -0.432311,2.09967 l 3.334317,5.06358 c 0.466713,0.70874 1.39055,0.89896 2.099674,0.43231 l 6.329648,-4.16818 -1.667359,-2.53199 -5.063689,3.33449 -1.667362,-2.53198 m 10.930102,0.0618 2.531987,-1.66737 -6.669065,-10.12739 -2.531978,1.66736 6.669056,10.1274 M 43.439507,144.501 c -1.850771,-2.81051 -5.613164,-3.56324 -8.398193,-1.72916 -2.785149,1.83407 -3.579962,5.58785 -1.729161,8.39824 1.850757,2.8105 5.587835,3.57995 8.398185,1.72916 2.810502,-1.85077 3.563245,-5.61317 1.729169,-8.39824 m 3.643032,24.82426 2.531997,-1.66736 -1.667371,-2.53199 -2.531986,1.66736 1.66736,2.53199 m -22.662785,-6.85487 2.531996,-1.66735 c 2.500888,3.79774 5.975007,6.48279 9.859167,8.02662 l 7.01324,-4.61831 c -4.606059,-0.26997 -9.074416,-2.59065 -11.80871,-6.74285 l -3.334535,-5.06366 -5.063698,3.33449 -1.667361,-2.53198 5.063699,-3.33454 -5.001799,-7.59554 35.445836,-23.34171 5.001805,7.59555 5.063695,-3.33453 1.667361,2.53199 -5.063705,3.33453 3.334536,5.0637 c 4.601653,6.98789 2.664988,16.39388 -4.322898,20.99554 l -10.127395,6.66902 c -0.860863,0.5669 -1.788221,1.03247 -2.698689,1.41421 l 3.367882,5.11433 c 0.919041,-0.42342 1.804374,-0.89802 2.665279,-1.46494 l 2.531996,-1.66735 2.117366,3.21536 c -0.952336,1.86106 -0.881075,4.17383 0.352445,6.04734 1.834062,2.78514 5.587844,3.57995 8.398233,1.72917 2.810499,-1.85077 3.563246,-5.61318 1.72916,-8.39824 -1.233736,-1.87352 -3.330089,-2.85241 -5.416229,-2.71276 l -2.117374,-3.21537 2.531996,-1.66735 c 9.798254,-6.45232 12.50439,-19.59551 6.052067,-29.39377 l 2.531997,-1.66736 c 1.392569,-0.91703 1.781658,-2.80677 0.864581,-4.19912 l -5.001783,-7.5955 c -0.917024,-1.39256 -2.806391,-1.78157 -4.199108,-0.86458 l -2.531988,1.66736 -1.667359,-2.53199 c -1.850766,-2.8105 -5.613165,-3.56324 -8.398234,-1.72916 l -35.445789,23.34167 c -2.810511,1.85077 -3.579965,5.58785 -1.729172,8.39824 l 1.667369,2.53199 -2.531996,1.66736 c -1.39257,0.91703 -1.781584,2.80639 -0.864572,4.19908 l 5.001769,7.59553 c 0.917028,1.39258 2.806385,1.78159 4.199105,0.86458 m 35.01355,-21.24214 c 2.785136,-1.83406 3.563254,-5.61316 1.729152,-8.39819 -1.834052,-2.78515 -5.613164,-3.56325 -8.398225,-1.72916 -2.785147,1.83406 -3.579963,5.58784 -1.729161,8.39819 1.850762,2.81051 5.587841,3.57995 8.398234,1.72916 z"
       id="path194-6"
       style="fill:#808080;fill-opacity:0.124242;stroke-width:3.03151" />
    <path
       d="m 123.52866,30.327279 -0.83342,-2.914873 2.91488,-0.833416 0.83342,2.914874 -2.91488,0.833415 m -9.5775,-0.414584 0.83342,2.914872 5.82942,-1.666752 -0.83342,-2.914864 -2.91487,0.833425 -0.41664,-1.457171 c -0.23329,-0.815925 -1.05789,-1.273812 -1.87414,-1.040721 l -5.82942,1.666734 c -0.81593,0.23326 -1.27385,1.057881 -1.04072,1.874153 l 2.08343,7.286753 2.91487,-0.833424 -1.66675,-5.829419 2.91487,-0.833422 m -3.32917,10.410892 0.83342,2.914875 11.65878,-3.33348 -0.83342,-2.914873 -11.65878,3.333478 m 39.35057,-0.2157 c 3.2355,-0.925105 5.07946,-4.289934 4.16266,-7.496126 -0.91675,-3.206303 -4.26074,-5.087811 -7.49614,-4.162654 -3.23551,0.925096 -5.08781,4.260732 -4.16265,7.496134 0.9251,3.235496 4.28994,5.079453 7.49613,4.162646 m -24.77724,-3.951372 0.83343,2.914871 2.91486,-0.833422 -0.83342,-2.914873 -2.91487,0.833424 m 13.32147,-19.5737 0.83342,2.914874 c -4.37204,1.250049 -7.9735,3.761696 -10.60876,7.006005 l 2.30848,8.073735 c 1.63571,-4.314287 5.18697,-7.88357 9.96702,-9.250329 l 5.82942,-1.666743 -1.66674,-5.829401 2.91486,-0.833433 1.66676,5.829417 8.74408,-2.500142 11.66723,40.805857 -8.74413,2.500123 1.66678,5.829381 -2.91487,0.833424 -1.66672,-5.829398 -5.82943,1.666745 c -8.04457,2.30011 -16.44026,-2.362071 -18.74037,-10.406653 L 130.61036,44.06765 c -0.28336,-0.991046 -0.45015,-2.015222 -0.542,-2.998194 l -5.88775,1.683334 c 0.12925,1.003289 0.31702,1.990417 0.60004,2.981308 l 0.83342,2.914875 -3.70157,1.058357 c -1.49088,-1.465541 -3.71899,-2.089483 -5.87578,-1.473045 -3.20631,0.916748 -5.08782,4.260769 -4.16267,7.496164 0.9251,3.235504 4.28997,5.079471 7.49617,4.162675 2.15683,-0.616635 3.7181,-2.32411 4.209,-4.356483 l 3.70158,-1.058348 0.83342,2.914853 c 3.22516,11.279924 14.95662,17.794482 26.23654,14.569318 l 0.83343,2.914882 c 0.45836,1.60315 2.14478,2.539623 3.74807,2.08133 l 8.74413,-2.500134 c 1.60315,-0.458354 2.53963,-2.144775 2.08133,-3.748072 l -0.83343,-2.914871 2.91487,-0.833434 c 3.23551,-0.925087 5.07947,-4.289916 4.16267,-7.496152 L 164.33461,18.660146 c -0.92509,-3.235498 -4.26077,-5.087823 -7.49613,-4.162647 l -2.91487,0.833423 -0.83342,-2.914872 c -0.45838,-1.603156 -2.1448,-2.5396298 -3.74808,-2.081328 l -8.74404,2.500126 c -1.60316,0.458357 -2.53963,2.144794 -2.08134,3.748072 m 9.79319,39.765198 c 0.91674,3.206303 4.28993,5.079453 7.49617,4.162675 3.20629,-0.916745 5.07946,-4.28997 4.16266,-7.496172 -0.91675,-3.206302 -4.26078,-5.087819 -7.49617,-4.162675 -3.2355,0.925105 -5.08782,4.260778 -4.16266,7.496172 z"
       id="path194-3-7"
       style="fill:#808080;fill-opacity:0.124242;stroke-width:3.03151" />
  </g>
</svg>
